<?xml version="1.0" encoding="utf-8" standalone="no"?>
<!DOCTYPE svg PUBLIC "-//W3C//DTD SVG 1.1//EN"
  "http://www.w3.org/Graphics/SVG/1.1/DTD/svg11.dtd">
<!-- Created with matplotlib (https://matplotlib.org/) -->
<svg height="504pt" version="1.1" viewBox="0 0 720 504" width="720pt" xmlns="http://www.w3.org/2000/svg" xmlns:xlink="http://www.w3.org/1999/xlink">
 <defs>
  <style type="text/css">
*{stroke-linecap:butt;stroke-linejoin:round;}
  </style>
 </defs>
 <g id="figure_1">
  <g id="patch_1">
   <path d="M 0 504 
L 720 504 
L 720 0 
L 0 0 
z
" style="fill:#ffffff;"/>
  </g>
  <g id="axes_1">
   <g id="patch_2">
    <path d="M 90 448.56 
L 648 448.56 
L 648 60.48 
L 90 60.48 
z
" style="fill:#e5e5e5;"/>
   </g>
   <g id="matplotlib.axis_1">
    <g id="xtick_1">
     <g id="line2d_1">
      <path clip-path="url(#p8099038bcb)" d="M 178.140723 448.56 
L 178.140723 60.48 
" style="fill:none;stroke:#ffffff;stroke-linecap:square;stroke-width:0.8;"/>
     </g>
     <g id="line2d_2">
      <defs>
       <path d="M 0 0 
L 0 3.5 
" id="m0076c8217d" style="stroke:#555555;stroke-width:0.8;"/>
      </defs>
      <g>
       <use style="fill:#555555;stroke:#555555;stroke-width:0.8;" x="178.140723" xlink:href="#m0076c8217d" y="448.56"/>
      </g>
     </g>
     <g id="text_1">
      <!-- −0.5 -->
      <defs>
       <path d="M 10.59375 35.5 
L 73.1875 35.5 
L 73.1875 27.203125 
L 10.59375 27.203125 
z
" id="DejaVuSans-8722"/>
       <path d="M 31.78125 66.40625 
Q 24.171875 66.40625 20.328125 58.90625 
Q 16.5 51.421875 16.5 36.375 
Q 16.5 21.390625 20.328125 13.890625 
Q 24.171875 6.390625 31.78125 6.390625 
Q 39.453125 6.390625 43.28125 13.890625 
Q 47.125 21.390625 47.125 36.375 
Q 47.125 51.421875 43.28125 58.90625 
Q 39.453125 66.40625 31.78125 66.40625 
z
M 31.78125 74.21875 
Q 44.046875 74.21875 50.515625 64.515625 
Q 56.984375 54.828125 56.984375 36.375 
Q 56.984375 17.96875 50.515625 8.265625 
Q 44.046875 -1.421875 31.78125 -1.421875 
Q 19.53125 -1.421875 13.0625 8.265625 
Q 6.59375 17.96875 6.59375 36.375 
Q 6.59375 54.828125 13.0625 64.515625 
Q 19.53125 74.21875 31.78125 74.21875 
z
" id="DejaVuSans-48"/>
       <path d="M 10.6875 12.40625 
L 21 12.40625 
L 21 0 
L 10.6875 0 
z
" id="DejaVuSans-46"/>
       <path d="M 10.796875 72.90625 
L 49.515625 72.90625 
L 49.515625 64.59375 
L 19.828125 64.59375 
L 19.828125 46.734375 
Q 21.96875 47.46875 24.109375 47.828125 
Q 26.265625 48.1875 28.421875 48.1875 
Q 40.625 48.1875 47.75 41.5 
Q 54.890625 34.8125 54.890625 23.390625 
Q 54.890625 11.625 47.5625 5.09375 
Q 40.234375 -1.421875 26.90625 -1.421875 
Q 22.3125 -1.421875 17.546875 -0.640625 
Q 12.796875 0.140625 7.71875 1.703125 
L 7.71875 11.625 
Q 12.109375 9.234375 16.796875 8.0625 
Q 21.484375 6.890625 26.703125 6.890625 
Q 35.15625 6.890625 40.078125 11.328125 
Q 45.015625 15.765625 45.015625 23.390625 
Q 45.015625 31 40.078125 35.4375 
Q 35.15625 39.890625 26.703125 39.890625 
Q 22.75 39.890625 18.8125 39.015625 
Q 14.890625 38.140625 10.796875 36.28125 
z
" id="DejaVuSans-53"/>
      </defs>
      <g style="fill:#555555;" transform="translate(165.999317 463.158437)scale(0.1 -0.1)">
       <use xlink:href="#DejaVuSans-8722"/>
       <use x="83.789062" xlink:href="#DejaVuSans-48"/>
       <use x="147.412109" xlink:href="#DejaVuSans-46"/>
       <use x="179.199219" xlink:href="#DejaVuSans-53"/>
      </g>
     </g>
    </g>
    <g id="xtick_2">
     <g id="line2d_3">
      <path clip-path="url(#p8099038bcb)" d="M 300.749414 448.56 
L 300.749414 60.48 
" style="fill:none;stroke:#ffffff;stroke-linecap:square;stroke-width:0.8;"/>
     </g>
     <g id="line2d_4">
      <g>
       <use style="fill:#555555;stroke:#555555;stroke-width:0.8;" x="300.749414" xlink:href="#m0076c8217d" y="448.56"/>
      </g>
     </g>
     <g id="text_2">
      <!-- 0.0 -->
      <g style="fill:#555555;" transform="translate(292.797852 463.158437)scale(0.1 -0.1)">
       <use xlink:href="#DejaVuSans-48"/>
       <use x="63.623047" xlink:href="#DejaVuSans-46"/>
       <use x="95.410156" xlink:href="#DejaVuSans-48"/>
      </g>
     </g>
    </g>
    <g id="xtick_3">
     <g id="line2d_5">
      <path clip-path="url(#p8099038bcb)" d="M 423.358105 448.56 
L 423.358105 60.48 
" style="fill:none;stroke:#ffffff;stroke-linecap:square;stroke-width:0.8;"/>
     </g>
     <g id="line2d_6">
      <g>
       <use style="fill:#555555;stroke:#555555;stroke-width:0.8;" x="423.358105" xlink:href="#m0076c8217d" y="448.56"/>
      </g>
     </g>
     <g id="text_3">
      <!-- 0.5 -->
      <g style="fill:#555555;" transform="translate(415.406542 463.158437)scale(0.1 -0.1)">
       <use xlink:href="#DejaVuSans-48"/>
       <use x="63.623047" xlink:href="#DejaVuSans-46"/>
       <use x="95.410156" xlink:href="#DejaVuSans-53"/>
      </g>
     </g>
    </g>
    <g id="xtick_4">
     <g id="line2d_7">
      <path clip-path="url(#p8099038bcb)" d="M 545.966795 448.56 
L 545.966795 60.48 
" style="fill:none;stroke:#ffffff;stroke-linecap:square;stroke-width:0.8;"/>
     </g>
     <g id="line2d_8">
      <g>
       <use style="fill:#555555;stroke:#555555;stroke-width:0.8;" x="545.966795" xlink:href="#m0076c8217d" y="448.56"/>
      </g>
     </g>
     <g id="text_4">
      <!-- 1.0 -->
      <defs>
       <path d="M 12.40625 8.296875 
L 28.515625 8.296875 
L 28.515625 63.921875 
L 10.984375 60.40625 
L 10.984375 69.390625 
L 28.421875 72.90625 
L 38.28125 72.90625 
L 38.28125 8.296875 
L 54.390625 8.296875 
L 54.390625 0 
L 12.40625 0 
z
" id="DejaVuSans-49"/>
      </defs>
      <g style="fill:#555555;" transform="translate(538.015233 463.158437)scale(0.1 -0.1)">
       <use xlink:href="#DejaVuSans-49"/>
       <use x="63.623047" xlink:href="#DejaVuSans-46"/>
       <use x="95.410156" xlink:href="#DejaVuSans-48"/>
      </g>
     </g>
    </g>
   </g>
   <g id="matplotlib.axis_2">
    <g id="ytick_1">
     <g id="line2d_9">
      <path clip-path="url(#p8099038bcb)" d="M 90 374.101065 
L 648 374.101065 
" style="fill:none;stroke:#ffffff;stroke-linecap:square;stroke-width:0.8;"/>
     </g>
     <g id="line2d_10">
      <defs>
       <path d="M 0 0 
L -3.5 0 
" id="m5744d3295b" style="stroke:#555555;stroke-width:0.8;"/>
      </defs>
      <g>
       <use style="fill:#555555;stroke:#555555;stroke-width:0.8;" x="90" xlink:href="#m5744d3295b" y="374.101065"/>
      </g>
     </g>
     <g id="text_5">
      <!-- −1.0 -->
      <g style="fill:#555555;" transform="translate(58.717187 377.900284)scale(0.1 -0.1)">
       <use xlink:href="#DejaVuSans-8722"/>
       <use x="83.789062" xlink:href="#DejaVuSans-49"/>
       <use x="147.412109" xlink:href="#DejaVuSans-46"/>
       <use x="179.199219" xlink:href="#DejaVuSans-48"/>
      </g>
     </g>
    </g>
    <g id="ytick_2">
     <g id="line2d_11">
      <path clip-path="url(#p8099038bcb)" d="M 90 288.265422 
L 648 288.265422 
" style="fill:none;stroke:#ffffff;stroke-linecap:square;stroke-width:0.8;"/>
     </g>
     <g id="line2d_12">
      <g>
       <use style="fill:#555555;stroke:#555555;stroke-width:0.8;" x="90" xlink:href="#m5744d3295b" y="288.265422"/>
      </g>
     </g>
     <g id="text_6">
      <!-- −0.5 -->
      <g style="fill:#555555;" transform="translate(58.717187 292.064641)scale(0.1 -0.1)">
       <use xlink:href="#DejaVuSans-8722"/>
       <use x="83.789062" xlink:href="#DejaVuSans-48"/>
       <use x="147.412109" xlink:href="#DejaVuSans-46"/>
       <use x="179.199219" xlink:href="#DejaVuSans-53"/>
      </g>
     </g>
    </g>
    <g id="ytick_3">
     <g id="line2d_13">
      <path clip-path="url(#p8099038bcb)" d="M 90 202.42978 
L 648 202.42978 
" style="fill:none;stroke:#ffffff;stroke-linecap:square;stroke-width:0.8;"/>
     </g>
     <g id="line2d_14">
      <g>
       <use style="fill:#555555;stroke:#555555;stroke-width:0.8;" x="90" xlink:href="#m5744d3295b" y="202.42978"/>
      </g>
     </g>
     <g id="text_7">
      <!-- 0.0 -->
      <g style="fill:#555555;" transform="translate(67.096875 206.228998)scale(0.1 -0.1)">
       <use xlink:href="#DejaVuSans-48"/>
       <use x="63.623047" xlink:href="#DejaVuSans-46"/>
       <use x="95.410156" xlink:href="#DejaVuSans-48"/>
      </g>
     </g>
    </g>
    <g id="ytick_4">
     <g id="line2d_15">
      <path clip-path="url(#p8099038bcb)" d="M 90 116.594137 
L 648 116.594137 
" style="fill:none;stroke:#ffffff;stroke-linecap:square;stroke-width:0.8;"/>
     </g>
     <g id="line2d_16">
      <g>
       <use style="fill:#555555;stroke:#555555;stroke-width:0.8;" x="90" xlink:href="#m5744d3295b" y="116.594137"/>
      </g>
     </g>
     <g id="text_8">
      <!-- 0.5 -->
      <g style="fill:#555555;" transform="translate(67.096875 120.393356)scale(0.1 -0.1)">
       <use xlink:href="#DejaVuSans-48"/>
       <use x="63.623047" xlink:href="#DejaVuSans-46"/>
       <use x="95.410156" xlink:href="#DejaVuSans-53"/>
      </g>
     </g>
    </g>
   </g>
   <g id="PathCollection_1">
    <defs>
     <path d="M 0 3 
C 0.795609 3 1.55874 2.683901 2.12132 2.12132 
C 2.683901 1.55874 3 0.795609 3 0 
C 3 -0.795609 2.683901 -1.55874 2.12132 -2.12132 
C 1.55874 -2.683901 0.795609 -3 0 -3 
C -0.795609 -3 -1.55874 -2.683901 -2.12132 -2.12132 
C -2.683901 -1.55874 -3 -0.795609 -3 0 
C -3 0.795609 -2.683901 1.55874 -2.12132 2.12132 
C -1.55874 2.683901 -0.795609 3 0 3 
z
" id="m014464a95e" style="stroke:#e24a33;stroke-width:0.5;"/>
    </defs>
    <g clip-path="url(#p8099038bcb)">
     <use style="fill:#e24a33;stroke:#e24a33;stroke-width:0.5;" x="304.66177" xlink:href="#m014464a95e" y="195.533431"/>
    </g>
   </g>
   <g id="PathCollection_2">
    <defs>
     <path d="M 0 3 
C 0.795609 3 1.55874 2.683901 2.12132 2.12132 
C 2.683901 1.55874 3 0.795609 3 0 
C 3 -0.795609 2.683901 -1.55874 2.12132 -2.12132 
C 1.55874 -2.683901 0.795609 -3 0 -3 
C -0.795609 -3 -1.55874 -2.683901 -2.12132 -2.12132 
C -2.683901 -1.55874 -3 -0.795609 -3 0 
C -3 0.795609 -2.683901 1.55874 -2.12132 2.12132 
C -1.55874 2.683901 -0.795609 3 0 3 
z
" id="m8946dd8958" style="stroke:#348abd;stroke-width:0.5;"/>
    </defs>
    <g clip-path="url(#p8099038bcb)">
     <use style="fill:#348abd;stroke:#348abd;stroke-width:0.5;" x="298.821045" xlink:href="#m8946dd8958" y="184.421019"/>
     <use style="fill:#348abd;stroke:#348abd;stroke-width:0.5;" x="309.10549" xlink:href="#m8946dd8958" y="198.189202"/>
    </g>
   </g>
   <g id="PathCollection_3">
    <defs>
     <path d="M 0 3 
C 0.795609 3 1.55874 2.683901 2.12132 2.12132 
C 2.683901 1.55874 3 0.795609 3 0 
C 3 -0.795609 2.683901 -1.55874 2.12132 -2.12132 
C 1.55874 -2.683901 0.795609 -3 0 -3 
C -0.795609 -3 -1.55874 -2.683901 -2.12132 -2.12132 
C -2.683901 -1.55874 -3 -0.795609 -3 0 
C -3 0.795609 -2.683901 1.55874 -2.12132 2.12132 
C -1.55874 2.683901 -0.795609 3 0 3 
z
" id="m5573ee01bb" style="stroke:#988ed5;stroke-width:0.5;"/>
    </defs>
    <g clip-path="url(#p8099038bcb)">
     <use style="fill:#988ed5;stroke:#988ed5;stroke-width:0.5;" x="291.559141" xlink:href="#m5573ee01bb" y="191.043976"/>
     <use style="fill:#988ed5;stroke:#988ed5;stroke-width:0.5;" x="302.270769" xlink:href="#m5573ee01bb" y="201.842187"/>
     <use style="fill:#988ed5;stroke:#988ed5;stroke-width:0.5;" x="300.067404" xlink:href="#m5573ee01bb" y="205.173288"/>
     <use style="fill:#988ed5;stroke:#988ed5;stroke-width:0.5;" x="302.066768" xlink:href="#m5573ee01bb" y="200.600864"/>
    </g>
   </g>
   <g id="PathCollection_4">
    <defs>
     <path d="M 0 3 
C 0.795609 3 1.55874 2.683901 2.12132 2.12132 
C 2.683901 1.55874 3 0.795609 3 0 
C 3 -0.795609 2.683901 -1.55874 2.12132 -2.12132 
C 1.55874 -2.683901 0.795609 -3 0 -3 
C -0.795609 -3 -1.55874 -2.683901 -2.12132 -2.12132 
C -2.683901 -1.55874 -3 -0.795609 -3 0 
C -3 0.795609 -2.683901 1.55874 -2.12132 2.12132 
C -1.55874 2.683901 -0.795609 3 0 3 
z
" id="m736d3ff20e" style="stroke:#777777;stroke-width:0.5;"/>
    </defs>
    <g clip-path="url(#p8099038bcb)">
     <use style="fill:#777777;stroke:#777777;stroke-width:0.5;" x="300.579207" xlink:href="#m736d3ff20e" y="197.606376"/>
     <use style="fill:#777777;stroke:#777777;stroke-width:0.5;" x="303.002959" xlink:href="#m736d3ff20e" y="203.245114"/>
     <use style="fill:#777777;stroke:#777777;stroke-width:0.5;" x="298.234329" xlink:href="#m736d3ff20e" y="195.636971"/>
     <use style="fill:#777777;stroke:#777777;stroke-width:0.5;" x="306.564175" xlink:href="#m736d3ff20e" y="199.480765"/>
     <use style="fill:#777777;stroke:#777777;stroke-width:0.5;" x="304.697678" xlink:href="#m736d3ff20e" y="203.552116"/>
     <use style="fill:#777777;stroke:#777777;stroke-width:0.5;" x="272.99746" xlink:href="#m736d3ff20e" y="206.777701"/>
     <use style="fill:#777777;stroke:#777777;stroke-width:0.5;" x="305.77035" xlink:href="#m736d3ff20e" y="200.38255"/>
     <use style="fill:#777777;stroke:#777777;stroke-width:0.5;" x="328.496961" xlink:href="#m736d3ff20e" y="194.099272"/>
    </g>
   </g>
   <g id="PathCollection_5">
    <defs>
     <path d="M 0 3 
C 0.795609 3 1.55874 2.683901 2.12132 2.12132 
C 2.683901 1.55874 3 0.795609 3 0 
C 3 -0.795609 2.683901 -1.55874 2.12132 -2.12132 
C 1.55874 -2.683901 0.795609 -3 0 -3 
C -0.795609 -3 -1.55874 -2.683901 -2.12132 -2.12132 
C -2.683901 -1.55874 -3 -0.795609 -3 0 
C -3 0.795609 -2.683901 1.55874 -2.12132 2.12132 
C -1.55874 2.683901 -0.795609 3 0 3 
z
" id="m285a66448f" style="stroke:#fbc15e;stroke-width:0.5;"/>
    </defs>
    <g clip-path="url(#p8099038bcb)">
     <use style="fill:#fbc15e;stroke:#fbc15e;stroke-width:0.5;" x="303.193606" xlink:href="#m285a66448f" y="208.147492"/>
     <use style="fill:#fbc15e;stroke:#fbc15e;stroke-width:0.5;" x="291.853301" xlink:href="#m285a66448f" y="189.949654"/>
     <use style="fill:#fbc15e;stroke:#fbc15e;stroke-width:0.5;" x="307.040494" xlink:href="#m285a66448f" y="200.379947"/>
     <use style="fill:#fbc15e;stroke:#fbc15e;stroke-width:0.5;" x="260.619113" xlink:href="#m285a66448f" y="201.960754"/>
     <use style="fill:#fbc15e;stroke:#fbc15e;stroke-width:0.5;" x="296.037257" xlink:href="#m285a66448f" y="199.179529"/>
     <use style="fill:#fbc15e;stroke:#fbc15e;stroke-width:0.5;" x="276.314077" xlink:href="#m285a66448f" y="194.95071"/>
     <use style="fill:#fbc15e;stroke:#fbc15e;stroke-width:0.5;" x="294.02921" xlink:href="#m285a66448f" y="216.849201"/>
     <use style="fill:#fbc15e;stroke:#fbc15e;stroke-width:0.5;" x="314.146098" xlink:href="#m285a66448f" y="184.39646"/>
     <use style="fill:#fbc15e;stroke:#fbc15e;stroke-width:0.5;" x="302.672886" xlink:href="#m285a66448f" y="203.74105"/>
     <use style="fill:#fbc15e;stroke:#fbc15e;stroke-width:0.5;" x="324.054372" xlink:href="#m285a66448f" y="210.765718"/>
     <use style="fill:#fbc15e;stroke:#fbc15e;stroke-width:0.5;" x="274.67108" xlink:href="#m285a66448f" y="217.485391"/>
     <use style="fill:#fbc15e;stroke:#fbc15e;stroke-width:0.5;" x="271.098053" xlink:href="#m285a66448f" y="213.763754"/>
     <use style="fill:#fbc15e;stroke:#fbc15e;stroke-width:0.5;" x="290.216826" xlink:href="#m285a66448f" y="204.812229"/>
     <use style="fill:#fbc15e;stroke:#fbc15e;stroke-width:0.5;" x="411.307368" xlink:href="#m285a66448f" y="128.035625"/>
     <use style="fill:#fbc15e;stroke:#fbc15e;stroke-width:0.5;" x="346.615114" xlink:href="#m285a66448f" y="184.356172"/>
     <use style="fill:#fbc15e;stroke:#fbc15e;stroke-width:0.5;" x="369.749586" xlink:href="#m285a66448f" y="195.710198"/>
    </g>
   </g>
   <g id="PathCollection_6">
    <defs>
     <path d="M 0 3 
C 0.795609 3 1.55874 2.683901 2.12132 2.12132 
C 2.683901 1.55874 3 0.795609 3 0 
C 3 -0.795609 2.683901 -1.55874 2.12132 -2.12132 
C 1.55874 -2.683901 0.795609 -3 0 -3 
C -0.795609 -3 -1.55874 -2.683901 -2.12132 -2.12132 
C -2.683901 -1.55874 -3 -0.795609 -3 0 
C -3 0.795609 -2.683901 1.55874 -2.12132 2.12132 
C -1.55874 2.683901 -0.795609 3 0 3 
z
" id="m5e3119dd20" style="stroke:#8eba42;stroke-width:0.5;"/>
    </defs>
    <g clip-path="url(#p8099038bcb)">
     <use style="fill:#8eba42;stroke:#8eba42;stroke-width:0.5;" x="333.703834" xlink:href="#m5e3119dd20" y="224.906782"/>
     <use style="fill:#8eba42;stroke:#8eba42;stroke-width:0.5;" x="306.247953" xlink:href="#m5e3119dd20" y="211.547419"/>
     <use style="fill:#8eba42;stroke:#8eba42;stroke-width:0.5;" x="275.13604" xlink:href="#m5e3119dd20" y="151.86568"/>
     <use style="fill:#8eba42;stroke:#8eba42;stroke-width:0.5;" x="277.663182" xlink:href="#m5e3119dd20" y="230.14167"/>
     <use style="fill:#8eba42;stroke:#8eba42;stroke-width:0.5;" x="315.819002" xlink:href="#m5e3119dd20" y="192.902637"/>
     <use style="fill:#8eba42;stroke:#8eba42;stroke-width:0.5;" x="331.977731" xlink:href="#m5e3119dd20" y="205.729503"/>
     <use style="fill:#8eba42;stroke:#8eba42;stroke-width:0.5;" x="243.185886" xlink:href="#m5e3119dd20" y="215.132739"/>
     <use style="fill:#8eba42;stroke:#8eba42;stroke-width:0.5;" x="258.157094" xlink:href="#m5e3119dd20" y="208.433548"/>
     <use style="fill:#8eba42;stroke:#8eba42;stroke-width:0.5;" x="283.37085" xlink:href="#m5e3119dd20" y="190.341984"/>
     <use style="fill:#8eba42;stroke:#8eba42;stroke-width:0.5;" x="234.774678" xlink:href="#m5e3119dd20" y="117.050451"/>
     <use style="fill:#8eba42;stroke:#8eba42;stroke-width:0.5;" x="245.764969" xlink:href="#m5e3119dd20" y="168.104798"/>
     <use style="fill:#8eba42;stroke:#8eba42;stroke-width:0.5;" x="259.748999" xlink:href="#m5e3119dd20" y="243.205943"/>
     <use style="fill:#8eba42;stroke:#8eba42;stroke-width:0.5;" x="329.002333" xlink:href="#m5e3119dd20" y="212.001545"/>
     <use style="fill:#8eba42;stroke:#8eba42;stroke-width:0.5;" x="212.627728" xlink:href="#m5e3119dd20" y="290.086064"/>
     <use style="fill:#8eba42;stroke:#8eba42;stroke-width:0.5;" x="298.508088" xlink:href="#m5e3119dd20" y="209.698623"/>
     <use style="fill:#8eba42;stroke:#8eba42;stroke-width:0.5;" x="347.643127" xlink:href="#m5e3119dd20" y="139.474667"/>
     <use style="fill:#8eba42;stroke:#8eba42;stroke-width:0.5;" x="234.103215" xlink:href="#m5e3119dd20" y="230.291358"/>
     <use style="fill:#8eba42;stroke:#8eba42;stroke-width:0.5;" x="369.446463" xlink:href="#m5e3119dd20" y="190.387626"/>
     <use style="fill:#8eba42;stroke:#8eba42;stroke-width:0.5;" x="293.034227" xlink:href="#m5e3119dd20" y="225.953073"/>
     <use style="fill:#8eba42;stroke:#8eba42;stroke-width:0.5;" x="452.478364" xlink:href="#m5e3119dd20" y="224.59952"/>
     <use style="fill:#8eba42;stroke:#8eba42;stroke-width:0.5;" x="116.007295" xlink:href="#m5e3119dd20" y="234.118464"/>
     <use style="fill:#8eba42;stroke:#8eba42;stroke-width:0.5;" x="297.250995" xlink:href="#m5e3119dd20" y="328.521028"/>
     <use style="fill:#8eba42;stroke:#8eba42;stroke-width:0.5;" x="283.348076" xlink:href="#m5e3119dd20" y="215.136302"/>
     <use style="fill:#8eba42;stroke:#8eba42;stroke-width:0.5;" x="189.083735" xlink:href="#m5e3119dd20" y="274.53207"/>
     <use style="fill:#8eba42;stroke:#8eba42;stroke-width:0.5;" x="308.398328" xlink:href="#m5e3119dd20" y="91.104845"/>
     <use style="fill:#8eba42;stroke:#8eba42;stroke-width:0.5;" x="271.856672" xlink:href="#m5e3119dd20" y="309.532721"/>
     <use style="fill:#8eba42;stroke:#8eba42;stroke-width:0.5;" x="432.890722" xlink:href="#m5e3119dd20" y="101.829338"/>
     <use style="fill:#8eba42;stroke:#8eba42;stroke-width:0.5;" x="384.801548" xlink:href="#m5e3119dd20" y="108.016137"/>
     <use style="fill:#8eba42;stroke:#8eba42;stroke-width:0.5;" x="381.642915" xlink:href="#m5e3119dd20" y="108.388136"/>
     <use style="fill:#8eba42;stroke:#8eba42;stroke-width:0.5;" x="411.504839" xlink:href="#m5e3119dd20" y="275.858983"/>
     <use style="fill:#8eba42;stroke:#8eba42;stroke-width:0.5;" x="334.718424" xlink:href="#m5e3119dd20" y="96.94493"/>
     <use style="fill:#8eba42;stroke:#8eba42;stroke-width:0.5;" x="621.992705" xlink:href="#m5e3119dd20" y="430.370662"/>
    </g>
   </g>
   <g id="PathCollection_7">
    <defs>
     <path d="M 0 3 
C 0.795609 3 1.55874 2.683901 2.12132 2.12132 
C 2.683901 1.55874 3 0.795609 3 0 
C 3 -0.795609 2.683901 -1.55874 2.12132 -2.12132 
C 1.55874 -2.683901 0.795609 -3 0 -3 
C -0.795609 -3 -1.55874 -2.683901 -2.12132 -2.12132 
C -2.683901 -1.55874 -3 -0.795609 -3 0 
C -3 0.795609 -2.683901 1.55874 -2.12132 2.12132 
C -1.55874 2.683901 -0.795609 3 0 3 
z
" id="m6ec98be7f4" style="stroke:#ffb5b8;stroke-width:0.5;"/>
    </defs>
    <g clip-path="url(#p8099038bcb)">
     <use style="fill:#ffb5b8;stroke:#ffb5b8;stroke-width:0.5;" x="383.071638" xlink:href="#m6ec98be7f4" y="299.985774"/>
     <use style="fill:#ffb5b8;stroke:#ffb5b8;stroke-width:0.5;" x="434.504675" xlink:href="#m6ec98be7f4" y="252.707423"/>
     <use style="fill:#ffb5b8;stroke:#ffb5b8;stroke-width:0.5;" x="414.812125" xlink:href="#m6ec98be7f4" y="282.534584"/>
     <use style="fill:#ffb5b8;stroke:#ffb5b8;stroke-width:0.5;" x="515.327689" xlink:href="#m6ec98be7f4" y="235.378173"/>
     <use style="fill:#ffb5b8;stroke:#ffb5b8;stroke-width:0.5;" x="301.398129" xlink:href="#m6ec98be7f4" y="89.652355"/>
     <use style="fill:#ffb5b8;stroke:#ffb5b8;stroke-width:0.5;" x="260.72083" xlink:href="#m6ec98be7f4" y="81.552536"/>
     <use style="fill:#ffb5b8;stroke:#ffb5b8;stroke-width:0.5;" x="224.577409" xlink:href="#m6ec98be7f4" y="296.109994"/>
     <use style="fill:#ffb5b8;stroke:#ffb5b8;stroke-width:0.5;" x="209.398097" xlink:href="#m6ec98be7f4" y="303.991413"/>
     <use style="fill:#ffb5b8;stroke:#ffb5b8;stroke-width:0.5;" x="449.627744" xlink:href="#m6ec98be7f4" y="233.173645"/>
     <use style="fill:#ffb5b8;stroke:#ffb5b8;stroke-width:0.5;" x="379.333024" xlink:href="#m6ec98be7f4" y="109.655614"/>
     <use style="fill:#ffb5b8;stroke:#ffb5b8;stroke-width:0.5;" x="413.802526" xlink:href="#m6ec98be7f4" y="128.516154"/>
     <use style="fill:#ffb5b8;stroke:#ffb5b8;stroke-width:0.5;" x="306.097872" xlink:href="#m6ec98be7f4" y="336.936097"/>
     <use style="fill:#ffb5b8;stroke:#ffb5b8;stroke-width:0.5;" x="119.090925" xlink:href="#m6ec98be7f4" y="211.982395"/>
     <use style="fill:#ffb5b8;stroke:#ffb5b8;stroke-width:0.5;" x="185.532126" xlink:href="#m6ec98be7f4" y="287.382248"/>
     <use style="fill:#ffb5b8;stroke:#ffb5b8;stroke-width:0.5;" x="281.64092" xlink:href="#m6ec98be7f4" y="310.915498"/>
     <use style="fill:#ffb5b8;stroke:#ffb5b8;stroke-width:0.5;" x="174.021411" xlink:href="#m6ec98be7f4" y="138.839219"/>
     <use style="fill:#ffb5b8;stroke:#ffb5b8;stroke-width:0.5;" x="307.415459" xlink:href="#m6ec98be7f4" y="92.855671"/>
     <use style="fill:#ffb5b8;stroke:#ffb5b8;stroke-width:0.5;" x="196.830675" xlink:href="#m6ec98be7f4" y="280.287686"/>
     <use style="fill:#ffb5b8;stroke:#ffb5b8;stroke-width:0.5;" x="282.176982" xlink:href="#m6ec98be7f4" y="80.203864"/>
     <use style="fill:#ffb5b8;stroke:#ffb5b8;stroke-width:0.5;" x="176.612143" xlink:href="#m6ec98be7f4" y="140.548634"/>
     <use style="fill:#ffb5b8;stroke:#ffb5b8;stroke-width:0.5;" x="396.091889" xlink:href="#m6ec98be7f4" y="119.56376"/>
     <use style="fill:#ffb5b8;stroke:#ffb5b8;stroke-width:0.5;" x="161.643698" xlink:href="#m6ec98be7f4" y="151.02474"/>
     <use style="fill:#ffb5b8;stroke:#ffb5b8;stroke-width:0.5;" x="207.785584" xlink:href="#m6ec98be7f4" y="289.667549"/>
     <use style="fill:#ffb5b8;stroke:#ffb5b8;stroke-width:0.5;" x="181.659709" xlink:href="#m6ec98be7f4" y="307.974428"/>
     <use style="fill:#ffb5b8;stroke:#ffb5b8;stroke-width:0.5;" x="431.894591" xlink:href="#m6ec98be7f4" y="305.882351"/>
     <use style="fill:#ffb5b8;stroke:#ffb5b8;stroke-width:0.5;" x="273.662162" xlink:href="#m6ec98be7f4" y="84.833404"/>
     <use style="fill:#ffb5b8;stroke:#ffb5b8;stroke-width:0.5;" x="184.433573" xlink:href="#m6ec98be7f4" y="274.6045"/>
     <use style="fill:#ffb5b8;stroke:#ffb5b8;stroke-width:0.5;" x="236.803977" xlink:href="#m6ec98be7f4" y="313.485285"/>
     <use style="fill:#ffb5b8;stroke:#ffb5b8;stroke-width:0.5;" x="264.023329" xlink:href="#m6ec98be7f4" y="261.489042"/>
     <use style="fill:#ffb5b8;stroke:#ffb5b8;stroke-width:0.5;" x="322.603041" xlink:href="#m6ec98be7f4" y="312.147715"/>
     <use style="fill:#ffb5b8;stroke:#ffb5b8;stroke-width:0.5;" x="363.126098" xlink:href="#m6ec98be7f4" y="87.942224"/>
     <use style="fill:#ffb5b8;stroke:#ffb5b8;stroke-width:0.5;" x="396.895774" xlink:href="#m6ec98be7f4" y="101.892891"/>
     <use style="fill:#ffb5b8;stroke:#ffb5b8;stroke-width:0.5;" x="277.945209" xlink:href="#m6ec98be7f4" y="310.95169"/>
     <use style="fill:#ffb5b8;stroke:#ffb5b8;stroke-width:0.5;" x="139.784071" xlink:href="#m6ec98be7f4" y="190.860005"/>
     <use style="fill:#ffb5b8;stroke:#ffb5b8;stroke-width:0.5;" x="464.987798" xlink:href="#m6ec98be7f4" y="195.256181"/>
     <use style="fill:#ffb5b8;stroke:#ffb5b8;stroke-width:0.5;" x="452.678868" xlink:href="#m6ec98be7f4" y="148.599604"/>
     <use style="fill:#ffb5b8;stroke:#ffb5b8;stroke-width:0.5;" x="261.553714" xlink:href="#m6ec98be7f4" y="231.170979"/>
     <use style="fill:#ffb5b8;stroke:#ffb5b8;stroke-width:0.5;" x="255.830025" xlink:href="#m6ec98be7f4" y="307.07809"/>
    </g>
   </g>
   <g id="patch_3">
    <path d="M 90 448.56 
L 90 60.48 
" style="fill:none;stroke:#ffffff;stroke-linecap:square;stroke-linejoin:miter;"/>
   </g>
   <g id="patch_4">
    <path d="M 648 448.56 
L 648 60.48 
" style="fill:none;stroke:#ffffff;stroke-linecap:square;stroke-linejoin:miter;"/>
   </g>
   <g id="patch_5">
    <path d="M 90 448.56 
L 648 448.56 
" style="fill:none;stroke:#ffffff;stroke-linecap:square;stroke-linejoin:miter;"/>
   </g>
   <g id="patch_6">
    <path d="M 90 60.48 
L 648 60.48 
" style="fill:none;stroke:#ffffff;stroke-linecap:square;stroke-linejoin:miter;"/>
   </g>
   <g id="text_9">
    <!-- 3990: N Nodes 101 Loss 1.1968529224395752 -->
    <defs>
     <path d="M 40.578125 39.3125 
Q 47.65625 37.796875 51.625 33 
Q 55.609375 28.21875 55.609375 21.1875 
Q 55.609375 10.40625 48.1875 4.484375 
Q 40.765625 -1.421875 27.09375 -1.421875 
Q 22.515625 -1.421875 17.65625 -0.515625 
Q 12.796875 0.390625 7.625 2.203125 
L 7.625 11.71875 
Q 11.71875 9.328125 16.59375 8.109375 
Q 21.484375 6.890625 26.8125 6.890625 
Q 36.078125 6.890625 40.9375 10.546875 
Q 45.796875 14.203125 45.796875 21.1875 
Q 45.796875 27.640625 41.28125 31.265625 
Q 36.765625 34.90625 28.71875 34.90625 
L 20.21875 34.90625 
L 20.21875 43.015625 
L 29.109375 43.015625 
Q 36.375 43.015625 40.234375 45.921875 
Q 44.09375 48.828125 44.09375 54.296875 
Q 44.09375 59.90625 40.109375 62.90625 
Q 36.140625 65.921875 28.71875 65.921875 
Q 24.65625 65.921875 20.015625 65.03125 
Q 15.375 64.15625 9.8125 62.3125 
L 9.8125 71.09375 
Q 15.4375 72.65625 20.34375 73.4375 
Q 25.25 74.21875 29.59375 74.21875 
Q 40.828125 74.21875 47.359375 69.109375 
Q 53.90625 64.015625 53.90625 55.328125 
Q 53.90625 49.265625 50.4375 45.09375 
Q 46.96875 40.921875 40.578125 39.3125 
z
" id="DejaVuSans-51"/>
     <path d="M 10.984375 1.515625 
L 10.984375 10.5 
Q 14.703125 8.734375 18.5 7.8125 
Q 22.3125 6.890625 25.984375 6.890625 
Q 35.75 6.890625 40.890625 13.453125 
Q 46.046875 20.015625 46.78125 33.40625 
Q 43.953125 29.203125 39.59375 26.953125 
Q 35.25 24.703125 29.984375 24.703125 
Q 19.046875 24.703125 12.671875 31.3125 
Q 6.296875 37.9375 6.296875 49.421875 
Q 6.296875 60.640625 12.9375 67.421875 
Q 19.578125 74.21875 30.609375 74.21875 
Q 43.265625 74.21875 49.921875 64.515625 
Q 56.59375 54.828125 56.59375 36.375 
Q 56.59375 19.140625 48.40625 8.859375 
Q 40.234375 -1.421875 26.421875 -1.421875 
Q 22.703125 -1.421875 18.890625 -0.6875 
Q 15.09375 0.046875 10.984375 1.515625 
z
M 30.609375 32.421875 
Q 37.25 32.421875 41.125 36.953125 
Q 45.015625 41.5 45.015625 49.421875 
Q 45.015625 57.28125 41.125 61.84375 
Q 37.25 66.40625 30.609375 66.40625 
Q 23.96875 66.40625 20.09375 61.84375 
Q 16.21875 57.28125 16.21875 49.421875 
Q 16.21875 41.5 20.09375 36.953125 
Q 23.96875 32.421875 30.609375 32.421875 
z
" id="DejaVuSans-57"/>
     <path d="M 11.71875 12.40625 
L 22.015625 12.40625 
L 22.015625 0 
L 11.71875 0 
z
M 11.71875 51.703125 
L 22.015625 51.703125 
L 22.015625 39.3125 
L 11.71875 39.3125 
z
" id="DejaVuSans-58"/>
     <path id="DejaVuSans-32"/>
     <path d="M 9.8125 72.90625 
L 23.09375 72.90625 
L 55.421875 11.921875 
L 55.421875 72.90625 
L 64.984375 72.90625 
L 64.984375 0 
L 51.703125 0 
L 19.390625 60.984375 
L 19.390625 0 
L 9.8125 0 
z
" id="DejaVuSans-78"/>
     <path d="M 30.609375 48.390625 
Q 23.390625 48.390625 19.1875 42.75 
Q 14.984375 37.109375 14.984375 27.296875 
Q 14.984375 17.484375 19.15625 11.84375 
Q 23.34375 6.203125 30.609375 6.203125 
Q 37.796875 6.203125 41.984375 11.859375 
Q 46.1875 17.53125 46.1875 27.296875 
Q 46.1875 37.015625 41.984375 42.703125 
Q 37.796875 48.390625 30.609375 48.390625 
z
M 30.609375 56 
Q 42.328125 56 49.015625 48.375 
Q 55.71875 40.765625 55.71875 27.296875 
Q 55.71875 13.875 49.015625 6.21875 
Q 42.328125 -1.421875 30.609375 -1.421875 
Q 18.84375 -1.421875 12.171875 6.21875 
Q 5.515625 13.875 5.515625 27.296875 
Q 5.515625 40.765625 12.171875 48.375 
Q 18.84375 56 30.609375 56 
z
" id="DejaVuSans-111"/>
     <path d="M 45.40625 46.390625 
L 45.40625 75.984375 
L 54.390625 75.984375 
L 54.390625 0 
L 45.40625 0 
L 45.40625 8.203125 
Q 42.578125 3.328125 38.25 0.953125 
Q 33.9375 -1.421875 27.875 -1.421875 
Q 17.96875 -1.421875 11.734375 6.484375 
Q 5.515625 14.40625 5.515625 27.296875 
Q 5.515625 40.1875 11.734375 48.09375 
Q 17.96875 56 27.875 56 
Q 33.9375 56 38.25 53.625 
Q 42.578125 51.265625 45.40625 46.390625 
z
M 14.796875 27.296875 
Q 14.796875 17.390625 18.875 11.75 
Q 22.953125 6.109375 30.078125 6.109375 
Q 37.203125 6.109375 41.296875 11.75 
Q 45.40625 17.390625 45.40625 27.296875 
Q 45.40625 37.203125 41.296875 42.84375 
Q 37.203125 48.484375 30.078125 48.484375 
Q 22.953125 48.484375 18.875 42.84375 
Q 14.796875 37.203125 14.796875 27.296875 
z
" id="DejaVuSans-100"/>
     <path d="M 56.203125 29.59375 
L 56.203125 25.203125 
L 14.890625 25.203125 
Q 15.484375 15.921875 20.484375 11.0625 
Q 25.484375 6.203125 34.421875 6.203125 
Q 39.59375 6.203125 44.453125 7.46875 
Q 49.3125 8.734375 54.109375 11.28125 
L 54.109375 2.78125 
Q 49.265625 0.734375 44.1875 -0.34375 
Q 39.109375 -1.421875 33.890625 -1.421875 
Q 20.796875 -1.421875 13.15625 6.1875 
Q 5.515625 13.8125 5.515625 26.8125 
Q 5.515625 40.234375 12.765625 48.109375 
Q 20.015625 56 32.328125 56 
Q 43.359375 56 49.78125 48.890625 
Q 56.203125 41.796875 56.203125 29.59375 
z
M 47.21875 32.234375 
Q 47.125 39.59375 43.09375 43.984375 
Q 39.0625 48.390625 32.421875 48.390625 
Q 24.90625 48.390625 20.390625 44.140625 
Q 15.875 39.890625 15.1875 32.171875 
z
" id="DejaVuSans-101"/>
     <path d="M 44.28125 53.078125 
L 44.28125 44.578125 
Q 40.484375 46.53125 36.375 47.5 
Q 32.28125 48.484375 27.875 48.484375 
Q 21.1875 48.484375 17.84375 46.4375 
Q 14.5 44.390625 14.5 40.28125 
Q 14.5 37.15625 16.890625 35.375 
Q 19.28125 33.59375 26.515625 31.984375 
L 29.59375 31.296875 
Q 39.15625 29.25 43.1875 25.515625 
Q 47.21875 21.78125 47.21875 15.09375 
Q 47.21875 7.46875 41.1875 3.015625 
Q 35.15625 -1.421875 24.609375 -1.421875 
Q 20.21875 -1.421875 15.453125 -0.5625 
Q 10.6875 0.296875 5.421875 2 
L 5.421875 11.28125 
Q 10.40625 8.6875 15.234375 7.390625 
Q 20.0625 6.109375 24.8125 6.109375 
Q 31.15625 6.109375 34.5625 8.28125 
Q 37.984375 10.453125 37.984375 14.40625 
Q 37.984375 18.0625 35.515625 20.015625 
Q 33.0625 21.96875 24.703125 23.78125 
L 21.578125 24.515625 
Q 13.234375 26.265625 9.515625 29.90625 
Q 5.8125 33.546875 5.8125 39.890625 
Q 5.8125 47.609375 11.28125 51.796875 
Q 16.75 56 26.8125 56 
Q 31.78125 56 36.171875 55.265625 
Q 40.578125 54.546875 44.28125 53.078125 
z
" id="DejaVuSans-115"/>
     <path d="M 9.8125 72.90625 
L 19.671875 72.90625 
L 19.671875 8.296875 
L 55.171875 8.296875 
L 55.171875 0 
L 9.8125 0 
z
" id="DejaVuSans-76"/>
     <path d="M 33.015625 40.375 
Q 26.375 40.375 22.484375 35.828125 
Q 18.609375 31.296875 18.609375 23.390625 
Q 18.609375 15.53125 22.484375 10.953125 
Q 26.375 6.390625 33.015625 6.390625 
Q 39.65625 6.390625 43.53125 10.953125 
Q 47.40625 15.53125 47.40625 23.390625 
Q 47.40625 31.296875 43.53125 35.828125 
Q 39.65625 40.375 33.015625 40.375 
z
M 52.59375 71.296875 
L 52.59375 62.3125 
Q 48.875 64.0625 45.09375 64.984375 
Q 41.3125 65.921875 37.59375 65.921875 
Q 27.828125 65.921875 22.671875 59.328125 
Q 17.53125 52.734375 16.796875 39.40625 
Q 19.671875 43.65625 24.015625 45.921875 
Q 28.375 48.1875 33.59375 48.1875 
Q 44.578125 48.1875 50.953125 41.515625 
Q 57.328125 34.859375 57.328125 23.390625 
Q 57.328125 12.15625 50.6875 5.359375 
Q 44.046875 -1.421875 33.015625 -1.421875 
Q 20.359375 -1.421875 13.671875 8.265625 
Q 6.984375 17.96875 6.984375 36.375 
Q 6.984375 53.65625 15.1875 63.9375 
Q 23.390625 74.21875 37.203125 74.21875 
Q 40.921875 74.21875 44.703125 73.484375 
Q 48.484375 72.75 52.59375 71.296875 
z
" id="DejaVuSans-54"/>
     <path d="M 31.78125 34.625 
Q 24.75 34.625 20.71875 30.859375 
Q 16.703125 27.09375 16.703125 20.515625 
Q 16.703125 13.921875 20.71875 10.15625 
Q 24.75 6.390625 31.78125 6.390625 
Q 38.8125 6.390625 42.859375 10.171875 
Q 46.921875 13.96875 46.921875 20.515625 
Q 46.921875 27.09375 42.890625 30.859375 
Q 38.875 34.625 31.78125 34.625 
z
M 21.921875 38.8125 
Q 15.578125 40.375 12.03125 44.71875 
Q 8.5 49.078125 8.5 55.328125 
Q 8.5 64.0625 14.71875 69.140625 
Q 20.953125 74.21875 31.78125 74.21875 
Q 42.671875 74.21875 48.875 69.140625 
Q 55.078125 64.0625 55.078125 55.328125 
Q 55.078125 49.078125 51.53125 44.71875 
Q 48 40.375 41.703125 38.8125 
Q 48.828125 37.15625 52.796875 32.3125 
Q 56.78125 27.484375 56.78125 20.515625 
Q 56.78125 9.90625 50.3125 4.234375 
Q 43.84375 -1.421875 31.78125 -1.421875 
Q 19.734375 -1.421875 13.25 4.234375 
Q 6.78125 9.90625 6.78125 20.515625 
Q 6.78125 27.484375 10.78125 32.3125 
Q 14.796875 37.15625 21.921875 38.8125 
z
M 18.3125 54.390625 
Q 18.3125 48.734375 21.84375 45.5625 
Q 25.390625 42.390625 31.78125 42.390625 
Q 38.140625 42.390625 41.71875 45.5625 
Q 45.3125 48.734375 45.3125 54.390625 
Q 45.3125 60.0625 41.71875 63.234375 
Q 38.140625 66.40625 31.78125 66.40625 
Q 25.390625 66.40625 21.84375 63.234375 
Q 18.3125 60.0625 18.3125 54.390625 
z
" id="DejaVuSans-56"/>
     <path d="M 19.1875 8.296875 
L 53.609375 8.296875 
L 53.609375 0 
L 7.328125 0 
L 7.328125 8.296875 
Q 12.9375 14.109375 22.625 23.890625 
Q 32.328125 33.6875 34.8125 36.53125 
Q 39.546875 41.84375 41.421875 45.53125 
Q 43.3125 49.21875 43.3125 52.78125 
Q 43.3125 58.59375 39.234375 62.25 
Q 35.15625 65.921875 28.609375 65.921875 
Q 23.96875 65.921875 18.8125 64.3125 
Q 13.671875 62.703125 7.8125 59.421875 
L 7.8125 69.390625 
Q 13.765625 71.78125 18.9375 73 
Q 24.125 74.21875 28.421875 74.21875 
Q 39.75 74.21875 46.484375 68.546875 
Q 53.21875 62.890625 53.21875 53.421875 
Q 53.21875 48.921875 51.53125 44.890625 
Q 49.859375 40.875 45.40625 35.40625 
Q 44.1875 33.984375 37.640625 27.21875 
Q 31.109375 20.453125 19.1875 8.296875 
z
" id="DejaVuSans-50"/>
     <path d="M 37.796875 64.3125 
L 12.890625 25.390625 
L 37.796875 25.390625 
z
M 35.203125 72.90625 
L 47.609375 72.90625 
L 47.609375 25.390625 
L 58.015625 25.390625 
L 58.015625 17.1875 
L 47.609375 17.1875 
L 47.609375 0 
L 37.796875 0 
L 37.796875 17.1875 
L 4.890625 17.1875 
L 4.890625 26.703125 
z
" id="DejaVuSans-52"/>
     <path d="M 8.203125 72.90625 
L 55.078125 72.90625 
L 55.078125 68.703125 
L 28.609375 0 
L 18.3125 0 
L 43.21875 64.59375 
L 8.203125 64.59375 
z
" id="DejaVuSans-55"/>
    </defs>
    <g transform="translate(199.053 54.48)scale(0.144 -0.144)">
     <use xlink:href="#DejaVuSans-51"/>
     <use x="63.623047" xlink:href="#DejaVuSans-57"/>
     <use x="127.246094" xlink:href="#DejaVuSans-57"/>
     <use x="190.869141" xlink:href="#DejaVuSans-48"/>
     <use x="254.492188" xlink:href="#DejaVuSans-58"/>
     <use x="288.183594" xlink:href="#DejaVuSans-32"/>
     <use x="319.970703" xlink:href="#DejaVuSans-78"/>
     <use x="394.775391" xlink:href="#DejaVuSans-32"/>
     <use x="426.5625" xlink:href="#DejaVuSans-78"/>
     <use x="501.367188" xlink:href="#DejaVuSans-111"/>
     <use x="562.548828" xlink:href="#DejaVuSans-100"/>
     <use x="626.025391" xlink:href="#DejaVuSans-101"/>
     <use x="687.548828" xlink:href="#DejaVuSans-115"/>
     <use x="739.648438" xlink:href="#DejaVuSans-32"/>
     <use x="771.435547" xlink:href="#DejaVuSans-49"/>
     <use x="835.058594" xlink:href="#DejaVuSans-48"/>
     <use x="898.681641" xlink:href="#DejaVuSans-49"/>
     <use x="962.304688" xlink:href="#DejaVuSans-32"/>
     <use x="994.091797" xlink:href="#DejaVuSans-76"/>
     <use x="1049.789062" xlink:href="#DejaVuSans-111"/>
     <use x="1110.970703" xlink:href="#DejaVuSans-115"/>
     <use x="1163.070312" xlink:href="#DejaVuSans-115"/>
     <use x="1215.169922" xlink:href="#DejaVuSans-32"/>
     <use x="1246.957031" xlink:href="#DejaVuSans-49"/>
     <use x="1310.580078" xlink:href="#DejaVuSans-46"/>
     <use x="1342.367188" xlink:href="#DejaVuSans-49"/>
     <use x="1405.990234" xlink:href="#DejaVuSans-57"/>
     <use x="1469.613281" xlink:href="#DejaVuSans-54"/>
     <use x="1533.236328" xlink:href="#DejaVuSans-56"/>
     <use x="1596.859375" xlink:href="#DejaVuSans-53"/>
     <use x="1660.482422" xlink:href="#DejaVuSans-50"/>
     <use x="1724.105469" xlink:href="#DejaVuSans-57"/>
     <use x="1787.728516" xlink:href="#DejaVuSans-50"/>
     <use x="1851.351562" xlink:href="#DejaVuSans-50"/>
     <use x="1914.974609" xlink:href="#DejaVuSans-52"/>
     <use x="1978.597656" xlink:href="#DejaVuSans-51"/>
     <use x="2042.220703" xlink:href="#DejaVuSans-57"/>
     <use x="2105.84375" xlink:href="#DejaVuSans-53"/>
     <use x="2169.466797" xlink:href="#DejaVuSans-55"/>
     <use x="2233.089844" xlink:href="#DejaVuSans-53"/>
     <use x="2296.712891" xlink:href="#DejaVuSans-50"/>
    </g>
   </g>
   <g id="legend_1">
    <g id="patch_7">
     <path d="M 571.576563 171.226875 
L 641 171.226875 
Q 643 171.226875 643 169.226875 
L 643 67.48 
Q 643 65.48 641 65.48 
L 571.576563 65.48 
Q 569.576563 65.48 569.576563 67.48 
L 569.576563 169.226875 
Q 569.576563 171.226875 571.576563 171.226875 
z
" style="fill:#e5e5e5;opacity:0.8;stroke:#cccccc;stroke-linejoin:miter;stroke-width:0.5;"/>
    </g>
    <g id="PathCollection_8">
     <g>
      <use style="fill:#e24a33;stroke:#e24a33;stroke-width:0.5;" x="583.576563" xlink:href="#m014464a95e" y="74.453438"/>
     </g>
    </g>
    <g id="text_10">
     <!-- Layer 0 -->
     <defs>
      <path d="M 34.28125 27.484375 
Q 23.390625 27.484375 19.1875 25 
Q 14.984375 22.515625 14.984375 16.5 
Q 14.984375 11.71875 18.140625 8.90625 
Q 21.296875 6.109375 26.703125 6.109375 
Q 34.1875 6.109375 38.703125 11.40625 
Q 43.21875 16.703125 43.21875 25.484375 
L 43.21875 27.484375 
z
M 52.203125 31.203125 
L 52.203125 0 
L 43.21875 0 
L 43.21875 8.296875 
Q 40.140625 3.328125 35.546875 0.953125 
Q 30.953125 -1.421875 24.3125 -1.421875 
Q 15.921875 -1.421875 10.953125 3.296875 
Q 6 8.015625 6 15.921875 
Q 6 25.140625 12.171875 29.828125 
Q 18.359375 34.515625 30.609375 34.515625 
L 43.21875 34.515625 
L 43.21875 35.40625 
Q 43.21875 41.609375 39.140625 45 
Q 35.0625 48.390625 27.6875 48.390625 
Q 23 48.390625 18.546875 47.265625 
Q 14.109375 46.140625 10.015625 43.890625 
L 10.015625 52.203125 
Q 14.9375 54.109375 19.578125 55.046875 
Q 24.21875 56 28.609375 56 
Q 40.484375 56 46.34375 49.84375 
Q 52.203125 43.703125 52.203125 31.203125 
z
" id="DejaVuSans-97"/>
      <path d="M 32.171875 -5.078125 
Q 28.375 -14.84375 24.75 -17.8125 
Q 21.140625 -20.796875 15.09375 -20.796875 
L 7.90625 -20.796875 
L 7.90625 -13.28125 
L 13.1875 -13.28125 
Q 16.890625 -13.28125 18.9375 -11.515625 
Q 21 -9.765625 23.484375 -3.21875 
L 25.09375 0.875 
L 2.984375 54.6875 
L 12.5 54.6875 
L 29.59375 11.921875 
L 46.6875 54.6875 
L 56.203125 54.6875 
z
" id="DejaVuSans-121"/>
      <path d="M 41.109375 46.296875 
Q 39.59375 47.171875 37.8125 47.578125 
Q 36.03125 48 33.890625 48 
Q 26.265625 48 22.1875 43.046875 
Q 18.109375 38.09375 18.109375 28.8125 
L 18.109375 0 
L 9.078125 0 
L 9.078125 54.6875 
L 18.109375 54.6875 
L 18.109375 46.1875 
Q 20.953125 51.171875 25.484375 53.578125 
Q 30.03125 56 36.53125 56 
Q 37.453125 56 38.578125 55.875 
Q 39.703125 55.765625 41.0625 55.515625 
z
" id="DejaVuSans-114"/>
     </defs>
     <g transform="translate(601.576563 77.078438)scale(0.1 -0.1)">
      <use xlink:href="#DejaVuSans-76"/>
      <use x="55.712891" xlink:href="#DejaVuSans-97"/>
      <use x="116.992188" xlink:href="#DejaVuSans-121"/>
      <use x="176.171875" xlink:href="#DejaVuSans-101"/>
      <use x="237.695312" xlink:href="#DejaVuSans-114"/>
      <use x="278.808594" xlink:href="#DejaVuSans-32"/>
      <use x="310.595703" xlink:href="#DejaVuSans-48"/>
     </g>
    </g>
    <g id="PathCollection_9">
     <g>
      <use style="fill:#348abd;stroke:#348abd;stroke-width:0.5;" x="583.576563" xlink:href="#m8946dd8958" y="89.131563"/>
     </g>
    </g>
    <g id="text_11">
     <!-- Layer 1 -->
     <g transform="translate(601.576563 91.756563)scale(0.1 -0.1)">
      <use xlink:href="#DejaVuSans-76"/>
      <use x="55.712891" xlink:href="#DejaVuSans-97"/>
      <use x="116.992188" xlink:href="#DejaVuSans-121"/>
      <use x="176.171875" xlink:href="#DejaVuSans-101"/>
      <use x="237.695312" xlink:href="#DejaVuSans-114"/>
      <use x="278.808594" xlink:href="#DejaVuSans-32"/>
      <use x="310.595703" xlink:href="#DejaVuSans-49"/>
     </g>
    </g>
    <g id="PathCollection_10">
     <g>
      <use style="fill:#988ed5;stroke:#988ed5;stroke-width:0.5;" x="583.576563" xlink:href="#m5573ee01bb" y="103.809687"/>
     </g>
    </g>
    <g id="text_12">
     <!-- Layer 2 -->
     <g transform="translate(601.576563 106.434687)scale(0.1 -0.1)">
      <use xlink:href="#DejaVuSans-76"/>
      <use x="55.712891" xlink:href="#DejaVuSans-97"/>
      <use x="116.992188" xlink:href="#DejaVuSans-121"/>
      <use x="176.171875" xlink:href="#DejaVuSans-101"/>
      <use x="237.695312" xlink:href="#DejaVuSans-114"/>
      <use x="278.808594" xlink:href="#DejaVuSans-32"/>
      <use x="310.595703" xlink:href="#DejaVuSans-50"/>
     </g>
    </g>
    <g id="PathCollection_11">
     <g>
      <use style="fill:#777777;stroke:#777777;stroke-width:0.5;" x="583.576563" xlink:href="#m736d3ff20e" y="118.487813"/>
     </g>
    </g>
    <g id="text_13">
     <!-- Layer 3 -->
     <g transform="translate(601.576563 121.112813)scale(0.1 -0.1)">
      <use xlink:href="#DejaVuSans-76"/>
      <use x="55.712891" xlink:href="#DejaVuSans-97"/>
      <use x="116.992188" xlink:href="#DejaVuSans-121"/>
      <use x="176.171875" xlink:href="#DejaVuSans-101"/>
      <use x="237.695312" xlink:href="#DejaVuSans-114"/>
      <use x="278.808594" xlink:href="#DejaVuSans-32"/>
      <use x="310.595703" xlink:href="#DejaVuSans-51"/>
     </g>
    </g>
    <g id="PathCollection_12">
     <g>
      <use style="fill:#fbc15e;stroke:#fbc15e;stroke-width:0.5;" x="583.576563" xlink:href="#m285a66448f" y="133.165938"/>
     </g>
    </g>
    <g id="text_14">
     <!-- Layer 4 -->
     <g transform="translate(601.576563 135.790938)scale(0.1 -0.1)">
      <use xlink:href="#DejaVuSans-76"/>
      <use x="55.712891" xlink:href="#DejaVuSans-97"/>
      <use x="116.992188" xlink:href="#DejaVuSans-121"/>
      <use x="176.171875" xlink:href="#DejaVuSans-101"/>
      <use x="237.695312" xlink:href="#DejaVuSans-114"/>
      <use x="278.808594" xlink:href="#DejaVuSans-32"/>
      <use x="310.595703" xlink:href="#DejaVuSans-52"/>
     </g>
    </g>
    <g id="PathCollection_13">
     <g>
      <use style="fill:#8eba42;stroke:#8eba42;stroke-width:0.5;" x="583.576563" xlink:href="#m5e3119dd20" y="147.844063"/>
     </g>
    </g>
    <g id="text_15">
     <!-- Layer 5 -->
     <g transform="translate(601.576563 150.469063)scale(0.1 -0.1)">
      <use xlink:href="#DejaVuSans-76"/>
      <use x="55.712891" xlink:href="#DejaVuSans-97"/>
      <use x="116.992188" xlink:href="#DejaVuSans-121"/>
      <use x="176.171875" xlink:href="#DejaVuSans-101"/>
      <use x="237.695312" xlink:href="#DejaVuSans-114"/>
      <use x="278.808594" xlink:href="#DejaVuSans-32"/>
      <use x="310.595703" xlink:href="#DejaVuSans-53"/>
     </g>
    </g>
    <g id="PathCollection_14">
     <g>
      <use style="fill:#ffb5b8;stroke:#ffb5b8;stroke-width:0.5;" x="583.576563" xlink:href="#m6ec98be7f4" y="162.522187"/>
     </g>
    </g>
    <g id="text_16">
     <!-- Layer 6 -->
     <g transform="translate(601.576563 165.147187)scale(0.1 -0.1)">
      <use xlink:href="#DejaVuSans-76"/>
      <use x="55.712891" xlink:href="#DejaVuSans-97"/>
      <use x="116.992188" xlink:href="#DejaVuSans-121"/>
      <use x="176.171875" xlink:href="#DejaVuSans-101"/>
      <use x="237.695312" xlink:href="#DejaVuSans-114"/>
      <use x="278.808594" xlink:href="#DejaVuSans-32"/>
      <use x="310.595703" xlink:href="#DejaVuSans-54"/>
     </g>
    </g>
   </g>
  </g>
 </g>
 <defs>
  <clipPath id="p8099038bcb">
   <rect height="388.08" width="558" x="90" y="60.48"/>
  </clipPath>
 </defs>
</svg>
